Coordinates
version=1
nRows=60
nColumns=12
inDegrees=yes

Units are S.I. units (second, meters, Newtons, ...)
Angles are in degrees

endheader
time	SC_y	SC_z	SC_x	AC_y	AC_z	AC_x	GH_y	GH_z	GH_yy	EL_x	PS_y
       0.0              -48.83          33.06          57.73          59.53         -1.187          12.69          157.3         -12.66         -105.4          110.4          129.0
   0.00317              -48.83          33.05          57.73          59.53         -1.187          12.69          157.3         -12.66         -105.4          110.4          128.9
  0.006339              -48.83          33.05          57.73          59.53         -1.186          12.69          157.3         -12.65         -105.4          110.4          128.9
  0.009509              -48.82          33.04          57.73          59.53         -1.186          12.69          157.2         -12.65         -105.4          110.3          128.9
   0.01268              -48.82          33.04          57.72          59.53         -1.186          12.69          157.2         -12.65         -105.4          110.3          128.9
   0.01585              -48.82          33.03          57.72          59.53         -1.185          12.69          157.2         -12.64         -105.4          110.3          128.9
   0.01902              -48.81          33.03          57.72          59.53         -1.185          12.69          157.2         -12.64         -105.4          110.3          128.9
   0.02219              -48.81          33.02          57.72          59.53         -1.184          12.69          157.1         -12.63         -105.4          110.3          128.9
   0.02536               -48.8          33.01          57.72          59.53         -1.184          12.69          157.1         -12.62         -105.5          110.3          128.8
   0.02853               -48.8           33.0          57.72          59.53         -1.183          12.69          157.1         -12.62         -105.5          110.3          128.8
    0.0317              -48.79           33.0          57.71          59.53         -1.182          12.69          157.0         -12.61         -105.5          110.3          128.8
   0.03487              -48.78          32.99          57.71          59.53         -1.182          12.69          157.0          -12.6         -105.5          110.3          128.8
   0.03804              -48.78          32.98          57.71          59.53         -1.181          12.69          157.0         -12.59         -105.5          110.2          128.7
   0.04121              -48.77          32.97          57.71          59.53          -1.18          12.69          156.9         -12.59         -105.6          110.2          128.7
   0.04438              -48.76          32.96           57.7          59.53         -1.179          12.69          156.9         -12.58         -105.6          110.2          128.7
   0.04755              -48.75          32.94           57.7          59.53         -1.178          12.69          156.8         -12.57         -105.6          110.2          128.6
   0.05072              -48.74          32.93           57.7          59.53         -1.177           12.7          156.8         -12.56         -105.6          110.2          128.6
   0.05388              -48.73          32.92          57.69          59.53         -1.176           12.7          156.7         -12.54         -105.7          110.1          128.6
   0.05705              -48.72           32.9          57.69          59.53         -1.175           12.7          156.7         -12.53         -105.7          110.1          128.5
   0.06022              -48.71          32.88          57.69          59.53         -1.174           12.7          156.6         -12.52         -105.7          110.1          128.5
   0.06339              -48.69          32.86          57.68          59.53         -1.172           12.7          156.5          -12.5         -105.8          110.0          128.4
   0.06656              -48.68          32.84          57.68          59.53         -1.171           12.7          156.4         -12.48         -105.8          110.0          128.4
   0.06973              -48.66          32.82          57.67          59.53         -1.169           12.7          156.3         -12.46         -105.9          110.0          128.3
    0.0729              -48.64          32.79          57.66          59.54         -1.167           12.7          156.2         -12.44         -105.9          109.9          128.2
   0.07607              -48.62          32.77          57.66          59.54         -1.165          12.71          156.1         -12.42         -106.0          109.9          128.2
   0.07924               -48.6          32.74          57.65          59.54         -1.163          12.71          156.0         -12.39         -106.1          109.8          128.1
   0.08241              -48.57           32.7          57.64          59.54          -1.16          12.71          155.8         -12.36         -106.1          109.8          128.0
   0.08558              -48.54          32.66          57.63          59.54         -1.157          12.71          155.7         -12.33         -106.2          109.7          127.9
   0.08875              -48.51          32.62          57.62          59.54         -1.154          12.72          155.5         -12.29         -106.3          109.6          127.8
   0.09192              -48.47          32.56          57.61          59.54          -1.15          12.72          155.3         -12.25         -106.4          109.5          127.6
   0.09509              -48.43          32.51          57.59          59.54         -1.145          12.73          155.1          -12.2         -106.6          109.4          127.5
   0.09826              -48.38          32.44          57.58          59.54          -1.14          12.73          154.8         -12.14         -106.7          109.3          127.3
    0.1014              -48.32          32.36          57.56          59.54         -1.134          12.74          154.5         -12.08         -106.9          109.2          127.1
    0.1046              -48.26          32.27          57.54          59.55         -1.128          12.74          154.1          -12.0         -107.1          109.0          126.8
    0.1078              -48.18          32.17          57.51          59.55          -1.12          12.75          153.7         -11.91         -107.3          108.8          126.5
    0.1109              -48.09          32.04          57.48          59.55          -1.11          12.76          153.2         -11.81         -107.6          108.6          126.2
    0.1141              -47.98           31.9          57.44          59.55         -1.099          12.77          152.6         -11.69         -107.9          108.4          125.8
    0.1173              -47.86          31.72           57.4          59.56         -1.086          12.78          151.9         -11.54         -108.3          108.1          125.3
    0.1204               -47.7          31.51          57.35          59.56          -1.07          12.79          151.1         -11.36         -108.7          107.7          124.7
    0.1236              -47.51          31.25          57.28          59.57          -1.05          12.81          150.0         -11.14         -109.3          107.3          124.0
    0.1268              -47.27          30.93          57.21          59.58         -1.026          12.83          148.7         -10.87         -110.0          106.7          123.1
      0.13              -46.98          30.53          57.11          59.59        -0.9953          12.86          147.1         -10.54         -110.8          106.0          122.0
    0.1331              -46.61          30.02          56.98           59.6        -0.9571           12.9          145.1         -10.11         -111.9          105.1          120.7
    0.1363              -46.14          29.38          56.83          59.61        -0.9086          12.94          142.5         -9.572         -113.3          104.0          118.9
    0.1395              -45.54          28.56          56.62          59.63        -0.8464           13.0          139.2         -8.882         -115.1          102.6          116.7
    0.1426              -44.77          27.51          56.36          59.65        -0.7666          13.07          135.0         -7.997         -117.4          100.8          113.8
    0.1458              -43.78          26.16          56.03          59.68        -0.6647          13.17          129.5         -6.867         -120.3          98.47          110.1
     0.149              -42.54          24.47          55.62          59.72        -0.5366          13.28          122.7         -5.445         -123.9          95.55          105.5
    0.1521              -41.03          22.41          55.11          59.77        -0.3804          13.43          114.5         -3.713         -128.4           92.0          99.85
    0.1553              -39.28          20.02          54.52          59.82        -0.1994          13.59          104.8         -1.704         -133.6          87.87          93.32
    0.1585              -37.38          17.43          53.89          59.88      -0.003455          13.77          94.43           0.47         -139.2          83.41          86.24
    0.1617              -35.49          14.84          53.25          59.93         0.1925          13.95          84.03          2.644         -144.8          78.94          79.17
    0.1648              -33.74          12.45          52.66          59.99         0.3735          14.12          74.41          4.653         -149.9          74.82          72.64
     0.168              -32.22          10.39          52.16          60.03         0.5297          14.26          66.12          6.385         -154.4          71.26           67.0
    0.1712              -30.98          8.699          51.74          60.07         0.6578          14.38          59.32          7.807         -158.1          68.34          62.37
    0.1743               -30.0          7.353          51.41           60.1         0.7597          14.47          53.91          8.937         -161.0          66.02           58.7
    0.1775              -29.23            6.3          51.15          60.12         0.8395          14.55          49.67          9.823         -163.3           64.2          55.82
    0.1807              -28.63          5.479          50.95          60.14         0.9017           14.6          46.37          10.51         -165.0          62.79          53.57
    0.1838              -28.16          4.838          50.79          60.15         0.9502          14.65          43.79          11.05         -166.4          61.68          51.82
     0.187              -27.79          4.333          50.67          60.17         0.9884          14.68          41.76          11.48         -167.5          60.81          50.44
